<?xml version="1.0" standalone="no"?>
<!DOCTYPE svg PUBLIC "-//W3C//DTD SVG 20010904//EN"
 "http://www.w3.org/TR/2001/REC-SVG-20010904/DTD/svg10.dtd">
<svg version="1.0" xmlns="http://www.w3.org/2000/svg"
 width="840.000000pt" height="264.000000pt" viewBox="0 0 840.000000 264.000000"
 preserveAspectRatio="xMidYMid meet">

<g transform="translate(0.000000,264.000000) scale(0.100000,-0.100000)"
fill="#000000" stroke="none">
<path d="M2707 2191 c-4 -17 -3 -21 5 -13 5 5 8 16 6 23 -3 8 -7 3 -11 -10z"/>
<path d="M2712 2140 c0 -14 2 -19 5 -12 2 6 2 18 0 25 -3 6 -5 1 -5 -13z"/>
<path d="M2624 2018 l-19 -23 23 19 c21 18 27 26 19 26 -2 0 -12 -10 -23 -22z"/>
<path d="M2619 1943 c-13 -16 -12 -17 4 -4 16 13 21 21 13 21 -2 0 -10 -8 -17
-17z"/>
<path d="M2534 1928 l-19 -23 23 19 c21 18 27 26 19 26 -2 0 -12 -10 -23 -22z"/>
<path d="M2519 1843 c-13 -16 -12 -17 4 -4 9 7 17 15 17 17 0 8 -8 3 -21 -13z"/>
<path d="M2736 1841 c-3 -4 4 -7 14 -6 27 2 33 10 10 12 -11 1 -22 -2 -24 -6z"/>
<path d="M2349 1773 c-13 -16 -12 -17 4 -4 9 7 17 15 17 17 0 8 -8 3 -21 -13z"/>
<path d="M2374 1708 l-19 -23 23 19 c12 11 22 21 22 23 0 8 -8 2 -26 -19z"/>
<path d="M2280 1700 c-6 -11 -8 -20 -6 -20 3 0 10 9 16 20 6 11 8 20 6 20 -3
0 -10 -9 -16 -20z"/>
<path d="M2529 1673 c-13 -16 -12 -17 4 -4 16 13 21 21 13 21 -2 0 -10 -8 -17
-17z"/>
<path d="M2251 1614 c0 -11 3 -14 6 -6 3 7 2 16 -1 19 -3 4 -6 -2 -5 -13z"/>
<path d="M2321 1574 c0 -11 3 -14 6 -6 3 7 2 16 -1 19 -3 4 -6 -2 -5 -13z"/>
<path d="M2530 1480 c6 -11 13 -20 16 -20 2 0 0 9 -6 20 -6 11 -13 20 -16 20
-2 0 0 -9 6 -20z"/>
<path d="M2660 1466 c0 -2 8 -10 18 -17 15 -13 16 -12 3 4 -13 16 -21 21 -21
13z"/>
<path d="M2378 1420 c6 -8 12 -18 12 -23 0 -4 -6 -5 -12 -1 -7 4 9 -16 37 -45
27 -28 51 -51 54 -51 6 0 -40 52 -61 68 -9 7 -15 18 -12 26 3 7 -3 19 -13 26
-15 12 -16 12 -5 0z"/>
<path d="M2590 1396 c0 -2 8 -10 18 -17 15 -13 16 -12 3 4 -13 16 -21 21 -21
13z"/>
<path d="M2622 1315 c0 -16 2 -22 5 -12 2 9 2 23 0 30 -3 6 -5 -1 -5 -18z"/>
<path d="M5780 1290 c-158 -3 -242 -9 -256 -17 -35 -20 -69 -66 -83 -114 -7
-24 -17 -54 -22 -67 -5 -13 -9 -39 -9 -58 0 -19 -9 -69 -21 -112 -11 -42 -23
-94 -26 -116 -2 -21 -13 -72 -24 -115 -11 -42 -21 -93 -23 -113 l-3 -36 58 -4
c66 -3 60 -13 79 123 6 37 18 93 28 125 l18 59 202 3 203 2 -33 48 c-18 26
-37 50 -43 54 -5 4 -76 8 -157 8 -160 0 -159 -1 -138 56 6 15 12 47 15 71 3
32 11 52 30 69 26 24 29 24 220 24 l193 0 13 38 c10 31 21 87 16 80 -1 -1
-108 -5 -237 -8z"/>
<path d="M3001 1265 c3 -2 14 -6 25 -8 27 -4 46 -18 72 -51 26 -34 28 -75 6
-119 -19 -38 -104 -127 -121 -127 -6 0 -15 -5 -18 -10 -10 -16 74 20 120 51
59 40 83 78 86 135 3 63 -10 87 -64 113 -37 18 -120 31 -106 16z"/>
<path d="M2070 1218 c-25 -11 -54 -22 -65 -24 -10 -2 -27 -12 -38 -22 -18 -18
-17 -19 50 -40 63 -20 87 -21 333 -19 233 2 278 5 370 25 57 12 109 27 115 33
6 6 -2 6 -20 -1 -16 -6 -102 -16 -190 -21 -88 -5 -203 -12 -255 -15 -57 -3
-133 0 -190 8 -85 12 -95 16 -98 35 -2 17 6 27 35 42 51 27 14 27 -47 -1z"/>
<path d="M4283 1083 c15 -2 37 -2 50 0 12 2 0 4 -28 4 -27 0 -38 -2 -22 -4z"/>
<path d="M4650 1083 c24 -2 48 -10 53 -16 6 -8 7 -7 4 3 -2 11 -18 15 -53 16
l-49 1 45 -4z"/>
<path d="M5857 1063 c10 -16 20 -30 24 -33 3 -3 23 -32 44 -65 21 -33 41 -62
44 -65 4 -3 17 -19 28 -36 l22 -31 -103 -109 c-56 -60 -117 -126 -135 -146
l-33 -38 75 0 76 0 88 95 c48 52 91 95 95 95 7 0 36 -40 73 -99 6 -9 23 -33
38 -53 28 -37 30 -38 93 -38 61 0 64 1 54 19 -5 11 -16 25 -23 33 -7 7 -30 40
-52 73 -21 33 -42 61 -47 63 -4 2 -8 8 -8 14 0 6 -11 24 -25 40 l-25 30 36 42
c21 22 79 85 131 139 l94 97 -79 0 -79 0 -82 -85 c-45 -47 -85 -85 -89 -85 -4
1 -32 39 -62 85 l-54 85 -68 0 -68 0 17 -27z"/>
<path d="M3898 1033 c6 -2 18 -2 25 0 6 3 1 5 -13 5 -14 0 -19 -2 -12 -5z"/>
<path d="M4963 1033 c9 -2 25 -2 35 0 9 3 1 5 -18 5 -19 0 -27 -2 -17 -5z"/>
<path d="M2138 1014 c-40 -21 -36 -50 10 -72 46 -23 88 -27 272 -27 194 0 262
5 322 25 l50 16 -24 16 c-21 14 -32 14 -98 1 -53 -10 -132 -13 -273 -11 -195
3 -199 3 -218 27 -10 12 -16 27 -13 32 7 12 4 11 -28 -7z"/>
<path d="M5080 1006 c0 -2 8 -10 18 -17 15 -13 16 -12 3 4 -13 16 -21 21 -21
13z"/>
<path d="M4144 765 c0 -121 2 -169 3 -107 2 62 2 161 0 220 -1 59 -3 8 -3
-113z"/>
<path d="M4053 910 c0 -25 2 -35 4 -22 2 12 2 32 0 45 -2 12 -4 2 -4 -23z"/>
<path d="M2182 804 c-27 -19 -28 -28 -2 -52 56 -52 304 -72 455 -38 85 20 106
24 118 25 20 2 2 20 -36 35 -33 12 -50 14 -80 5 -22 -6 -111 -9 -214 -7 -167
3 -176 4 -193 26 -22 26 -20 26 -48 6z"/>
<path d="M3764 788 l-19 -23 23 19 c21 18 27 26 19 26 -2 0 -12 -10 -23 -22z"/>
<path d="M3928 803 c7 -3 16 -2 19 1 4 3 -2 6 -13 5 -11 0 -14 -3 -6 -6z"/>
<path d="M4050 732 l5 -77 3 69 c2 38 -1 73 -5 77 -4 4 -6 -27 -3 -69z"/>
<path d="M4904 768 l-19 -23 23 19 c12 11 22 21 22 23 0 8 -8 2 -26 -19z"/>
<path d="M3735 749 c-4 -6 -5 -12 -2 -15 2 -3 7 2 10 11 7 17 1 20 -8 4z"/>
<path d="M3723 675 c0 -22 2 -30 4 -17 2 12 2 30 0 40 -3 9 -5 -1 -4 -23z"/>
<path d="M3812 690 c0 -14 2 -19 5 -12 2 6 2 18 0 25 -3 6 -5 1 -5 -13z"/>
<path d="M1868 648 c-57 -30 -72 -47 -57 -65 15 -18 97 -41 149 -42 25 0 88
-6 140 -13 124 -16 480 -16 595 0 50 7 108 14 130 16 40 4 155 33 163 41 7 6
-96 -5 -143 -15 -156 -35 -659 -38 -778 -6 -32 9 -69 16 -83 16 -25 0 -84 28
-84 40 0 9 42 47 60 53 8 3 3 5 -12 4 -15 -1 -51 -14 -80 -29z"/>
<path d="M3080 651 c0 -12 -15 -26 -42 -40 -24 -12 -37 -21 -29 -21 26 0 81
41 81 61 0 10 -2 19 -5 19 -3 0 -5 -9 -5 -19z"/>
<path d="M5099 643 c-13 -16 -12 -17 4 -4 9 7 17 15 17 17 0 8 -8 3 -21 -13z"/>
<path d="M4066 587 c3 -10 9 -15 12 -12 3 3 0 11 -7 18 -10 9 -11 8 -5 -6z"/>
<path d="M3996 565 c-11 -8 -15 -15 -9 -15 6 0 16 7 23 15 16 19 11 19 -14 0z"/>
<path d="M3511 544 c0 -11 3 -14 6 -6 3 7 2 16 -1 19 -3 4 -6 -2 -5 -13z"/>
<path d="M3130 538 c-14 -6 -43 -19 -66 -29 -23 -10 -59 -20 -80 -22 -21 -3
-86 -15 -144 -27 -91 -19 -137 -22 -350 -23 -238 0 -241 0 -125 -10 88 -7 167
-6 295 3 96 7 198 14 225 16 63 4 211 52 250 81 33 25 32 27 -5 11z"/>
<path d="M3898 533 c7 -3 16 -2 19 1 4 3 -2 6 -13 5 -11 0 -14 -3 -6 -6z"/>
<path d="M3449 433 l-34 -38 38 34 c20 19 37 36 37 38 0 8 -8 0 -41 -34z"/>
</g>
</svg>
