<!-- icon666.com - MILLIONS vector ICONS FREE --><svg viewBox="0 0 48 48" xmlns="http://www.w3.org/2000/svg"><g id="SQL"><circle cx="24" cy="24" fill="#ffbe1d" r="23"></circle><rect fill="#fff" height="20" rx="2" width="34" x="7" y="14"></rect><path d="m48 23a24 24 0 1 0 0 2zm-2 0h-4v-7a3 3 0 0 0 -3-3h-4.87a33 33 0 0 0 -1.61-3.77 35.09 35.09 0 0 0 6.06-1.67 21.85 21.85 0 0 1 7.42 15.44zm-6 9a1 1 0 0 1 -1 1h-30a1 1 0 0 1 -1-1v-16a1 1 0 0 1 1-1h30a1 1 0 0 1 1 1zm-9.55 6.43a51.34 51.34 0 0 0 -12.89 0 26.72 26.72 0 0 1 -1.56-3.43h16a27 27 0 0 1 -1.55 3.43zm-12.89-28.87a51.55 51.55 0 0 0 6.44.44 51.55 51.55 0 0 0 6.44-.43 25.86 25.86 0 0 1 1.56 3.43h-16a25.86 25.86 0 0 1 1.56-3.44zm19.19-3.47a32 32 0 0 1 -5.23 1.3 30.42 30.42 0 0 0 -3.62-5 21.83 21.83 0 0 1 8.85 3.7zm-11.9-4.09a30.51 30.51 0 0 1 4.53 5.67 44.48 44.48 0 0 1 -10.76 0 31 31 0 0 1 4.53-5.67 16.07 16.07 0 0 1 1.7 0zm-13.6 4.09a21.83 21.83 0 0 1 8.85-3.74 30.42 30.42 0 0 0 -3.62 5 35.55 35.55 0 0 1 -5.23-1.26zm-1.85 1.48a39.09 39.09 0 0 0 6.08 1.66 30.94 30.94 0 0 0 -1.61 3.77h-4.87a3 3 0 0 0 -3 3v7h-4a21.89 21.89 0 0 1 7.4-15.43zm-7.4 17.43h4v7a3 3 0 0 0 3 3h4.87a30.65 30.65 0 0 0 1.61 3.77 34.84 34.84 0 0 0 -6.06 1.67 21.85 21.85 0 0 1 -7.42-15.44zm9.22 16.91a31.81 31.81 0 0 1 5.23-1.3 30.42 30.42 0 0 0 3.62 5 21.83 21.83 0 0 1 -8.82-3.7zm11.93 4.09a30.71 30.71 0 0 1 -4.53-5.67 45.48 45.48 0 0 1 10.76 0 31 31 0 0 1 -4.53 5.67 16.07 16.07 0 0 1 -1.7 0zm13.6-4.07a21.83 21.83 0 0 1 -8.85 3.74 30.42 30.42 0 0 0 3.62-5 37.51 37.51 0 0 1 5.23 1.24zm1.85-1.48a40.62 40.62 0 0 0 -6.08-1.66 30.19 30.19 0 0 0 1.61-3.79h4.87a3 3 0 0 0 3-3v-7h4a21.89 21.89 0 0 1 -7.4 15.43z"></path><g fill="#7c6f66"><path d="m14 29h-3v-2h3a1 1 0 0 0 0-2 3 3 0 0 1 0-6h3v2h-3a1 1 0 0 0 0 2 3 3 0 0 1 0 6z"></path><path d="m23 29a4 4 0 0 1 -4-4v-2a4 4 0 0 1 8 0v2a4 4 0 0 1 -4 4zm0-8a2 2 0 0 0 -2 2v2a2 2 0 0 0 4 0v-2a2 2 0 0 0 -2-2z"></path><path d="m37 29h-6v-10h2v8h4z"></path><path d="m25 22.76h2v6.47h-2z" transform="matrix(.447 -.894 .894 .447 -8.88 37.63)"></path></g></g></svg>